<?xml version="1.0" encoding="UTF-8" standalone="no"?>
<svg xmlns="http://www.w3.org/2000/svg" height="74px" width="347px" version="1.1" xmlns:xlink="http://www.w3.org/1999/xlink" viewBox="-580 -1348 347 74">
<g transform="translate(-580 -1.35e3)" fill-rule="evenodd">
<path id="type" d="m82.3 21.3c-1.9-2.7-13.8-0.2-19.6 1.9-1.5 0.5-2.8 1.4-1.7 3.8 1.2 2.2 2.4 4.7 2.4 6.3 0 9.9-3.2 19.1-5.9 26.4-1.9 5.1-3.8 10.4-2.4 11.8 1.2 1.2 2.9 0.5 16.6-0.2 1.4 0 1.9-0.3 2.2-2.2 2.6-16.9 8.5-35.3 13.5-35.3 1.5 0.1 2.2 2 2.5 2.5 2.9 8.7 18.1-3.2 15.1-11.9-3-8.5-11.9-7.5-22.7 7.8 1.2-7.3 1-9.7 0-10.9m188 20.7c1-22.9-23-29.4-43-15.9-7 5.1-12 15.7-12 24.6-1 5.3-6 8.7-14 11.7-11 4.8-21-1.7-22-15.7 0-4.9 2-10.4 5-15 4-6.6 15-9.4 13-2.4 0 2.6-3 4-2 7.4 0 4.6 9 4.9 12 0.5 8-10.2-4-18.6-20-17.1-16 1.4-29 13.5-29 29.7 0 9.9-19 17.6-29 11.6-3-1.5-6-5.6-5-9.5 0-1.4 1-1.6 2-1.6 10-1.7 14-3 19-7 8-6.8 10-17 1-21.8-4-1.9-19-4.3-32 4.4 0 0.4-13 8.6-13 24.1 0 10.1 5 16.9 13 20.3 5 2 11 2.9 18 2 9-0.8 19-6.4 24-10.2 3-2 4-1.2 5 0 17 20.3 41 7.3 51-0.3 3-1.9 4-0.2 5 1 4 6 10 9.7 22 9.9 16 0.5 30-13 31-30.7m-147 2.9c-4-4.3 8-22.2 15-20.3 4 0.8 5 3.9 3 8.5-2 6-15 14.5-18 11.8m138 2c-4 19.2-27 23.5-29 4.9-1-15.6 14-31.7 26-23.5 4 3 5 10.8 3 18.6m70-5.3c-10 0-18 5.3-20 16.9-3 17.4 23 21 35 5.1 2-1.8 0-4.1-2-2.3-5 4.1-10 7.1-14 5.9-4-0.8-7-6.6-4-6.6 12-1.6 15-7.9 16-9.8 1-5.9-3-9.2-11-9.2m4 7c-1 4.1-5 7.7-9 8.2-3 0 0-8.3 4-10.2 3-2.1 5-0.7 5 2m-52 21.5c5 4.6 17 4.6 21 0.7 5-3.2 6-10.1 1-14.2-6-3.5-8-6.3-8-8.1 0-4.8 7-3.8 5-0.2s4 7.2 7 2.2c1-1.5 1-3.2 0-4.8-3-5.4-12-5.1-18-2.9-7 2.6-8 10.4-2 14.7 4 2.7 7 4.6 6 8 0 3.9-5 3.3-5-0.3 0-4.3-3-6.2-6-4.6-4 1.7-3 6.8-1 9.5m-12-8c-3 0-5 2.4-5 5.5 0 3.2 2 5.6 5 5.6s6-2.4 6-5.6c0-3.1-3-5.5-6-5.5"/>
<path d="m47.9 12.9c-7.1-12.2-22.9-16.3-34.9-9.25-24.8 14.4-10.3 51.8 20.8 55.6 0 0 3.3 0.4 4.7 0.4 1.2 0 1.7-1 0.5-1.4-4.2-1.4-6.7-3.7-8-7.3 17.4-4.2 25.6-22.9 16.9-38"/>
<g transform="translate(4.01 3.52)">
<path d="m43.5 20c-1.1-10.6-9.7-18.9-20.3-19.5v19.5h20.3z" fill="#51A7D8"/>
<path d="m23.2 44.1c11.3-0.7 20.2-10 20.4-21.5h-20.4v21.5z" fill="#C3DA4A"/>
<path d="m0.211 22.6c0.17 11.5 9.15 20.8 20.4 21.5v-21.5h-20.4z" fill="#ED2281"/>
<path d="m20.6 0.499c-10.6 0.621-19.2 8.87-20.3 19.5h20.3v-19.5z" fill="#F9C63C"/>
</g>
</g>
</svg>
