<svg width="297px" height="37px" viewBox="0 0 297 37" version="1.1" xmlns="http://www.w3.org/2000/svg" xmlns:xlink="http://www.w3.org/1999/xlink">
    <!-- Generator: Sketch 47.1 (45422) - http://www.bohemiancoding.com/sketch -->
    <desc>Created with Sketch.</desc>
    <defs></defs>
    <g id="Page-1" stroke="none" stroke-width="1" fill="none" fill-rule="evenodd">
        <g id="landingpage2.2" transform="translate(-80.000000, -38.000000)">
            <g id="header">
                <g id="logo-trust" transform="translate(80.000000, 38.000000)">
                    <g>
                        <path d="M65.4446249,8.19660684 C64.4332297,6.73194457 57.9966587,8.10472087 54.8701924,9.20367701 C54.0424355,9.47841604 53.3069593,9.93600814 53.9501549,11.2178173 C54.5942734,12.4086594 55.2374691,13.7823546 55.2374691,14.6056528 C55.2374691,19.9166616 53.4905976,24.8610453 52.0187222,28.7983589 C51.007327,31.5448304 49.9959318,34.3831878 50.7314081,35.1155189 C51.3755266,35.756883 52.2946412,35.390258 59.7435302,35.0245518 C60.4790065,35.0245518 60.7549255,34.8407799 60.9385638,33.8337097 C62.3181586,24.7691594 65.5369055,14.8803919 68.2028917,14.8803919 C69.0306485,14.9722778 69.3988481,15.979348 69.5824865,16.254087 C71.1457196,20.9237317 79.4214427,14.5146857 77.7668518,9.84504104 C76.2949764,5.26636344 71.3330492,5.82135466 65.4446249,14.0561748 C66.0887434,10.1197801 65.9964628,8.83797087 65.4446249,8.19660684 M167.14706,19.2752976 C167.791179,7.0066836 154.824834,3.52696213 144.066763,10.7602252 C140.203897,13.5076156 137.077431,19.1843304 137.077431,23.9449423 C136.710154,26.7832997 133.859607,28.614587 129.813103,30.2630212 C123.56017,32.8266396 118.227275,29.347837 118.042714,21.838916 C118.042714,19.1843304 118.870471,16.254087 120.433704,13.7823546 C122.824694,10.2107472 128.801708,8.7460849 127.514394,12.4996265 C127.330755,13.8733217 126.134799,14.6056528 126.410718,16.4369401 C126.686637,18.9095914 131.376336,19.0924445 133.215488,16.7116791 C137.077431,11.2178173 131.100417,6.73194457 122.089218,7.55524281 C113.721214,8.2884928 106.640525,14.7894248 106.456886,23.4873502 C106.456886,28.7983589 96.15745,32.9185255 90.6399937,29.7135431 C89.1690411,28.889326 87.329889,26.6923326 87.881727,24.5863063 C88.0653653,23.8539752 88.7094838,23.7620892 89.0767606,23.7620892 C94.3182979,22.846905 96.8015685,22.113655 99.4684775,20.0085475 C103.973616,16.345973 104.893653,10.8521112 99.8357543,8.2884928 C97.8129638,7.28142263 89.8131596,5.99869457 82.7324702,10.6683393 C82.4565512,10.8521112 75.8354191,15.2470169 75.8354191,23.5792361 C75.8354191,28.981212 78.0427707,32.6437865 82.4565512,34.4750738 C85.214818,35.5740299 88.7094838,36.031622 92.4791458,35.5740299 C97.3534065,35.1155189 102.870863,32.0943084 105.445491,30.0801681 C106.824163,28.981212 107.376001,29.4388041 107.927839,30.0801681 C117.1236,40.9760057 130.548579,34.0174817 135.790117,29.8963962 C137.077431,28.889326 137.81383,29.8054291 138.273387,30.4458742 C140.479816,33.6508567 143.974482,35.664997 150.135134,35.756883 C158.871337,36.031622 166.411584,28.7983589 167.14706,19.2752976 M87.605808,20.8318458 C85.3070986,18.5429664 91.7436695,8.92893797 95.7901733,9.93600814 C97.5370448,10.3945191 98.3648017,12.0420344 97.3534065,14.5146857 C96.0660923,17.7187493 89.0767606,22.2974269 87.605808,20.8318458 M162.533954,21.9252888 C159.915031,32.1990584 147.727534,34.5200979 146.776121,24.5504708 C145.909606,16.1943612 154.324673,7.54697307 160.482556,11.9409599 C162.670529,13.5645849 163.557346,17.7306945 162.533954,21.9252888" id="type" fill="#000000"></path>
                        <g id="colors" transform="translate(9.221918, 9.452555)">
                            <polygon id="Rectangle-5" fill="#FCC10F" points="0 0 14.1041096 0 14.1041096 5.94160584 1.35616438 5.94160584"></polygon>
                            <polygon id="Rectangle-5-Copy-2" fill="#EC1A75" points="1.35616438 5.94160584 14.1041096 5.94160584 14.1041096 11.8832117 2.71232877 11.8832117"></polygon>
                            <polygon id="Rectangle-5-Copy" fill="#489BD4" points="14.1041096 0 28.7506849 0 26.8520548 5.94160584 14.1041096 5.94160584"></polygon>
                            <polygon id="Rectangle-5-Copy-3" fill="#BBD531" points="14.1041096 5.94160584 26.8520548 5.94160584 25.2246575 11.8832117 14.1041096 11.8832117"></polygon>
                        </g>
                        <path d="M10.4649233,26.7630079 C7.91299677,28.150116 6.8942625,31.277277 8.14354232,33.8888428 C9.39282214,36.5004086 12.4753936,37.6876106 15.1677713,36.5941097 C17.8601491,35.5006088 19.2254437,32.5069198 18.2788564,29.7724164 L28.8503755,29.7724164 C28.0829441,32.0114277 28.8577319,34.4869915 30.7673767,35.8975247 C32.6770216,37.308058 35.2842366,37.3305645 37.21822,35.9532111 C39.1522035,34.5758576 39.9700951,32.1140424 39.2418702,29.86212 C38.5136453,27.6101975 36.406059,26.0838325 34.0272219,26.0855454 L14.0984485,26.0855454 L13.7091423,23.9056829 L35.6493314,23.9056829 L40.4136986,6.65186616 L10.3954044,6.65186616 L9.26919693,0 L0,0 L0,3.68687096 L6.14084297,3.68687096 L10.4649233,26.7630079 Z M14.9178082,31.5985401 C14.9178082,32.6426405 14.0677626,33.4890511 13.0191781,33.4890511 C11.9705936,33.4890511 11.1205479,32.6426405 11.1205479,31.5985401 C11.1205479,30.5544398 11.9705936,29.7080292 13.0191781,29.7080292 C14.0607833,29.7188866 14.9001886,30.5613358 14.9028584,31.5985401 L14.9178082,31.5985401 Z M36.0739726,31.5985401 C36.0739726,32.6426405 35.2239269,33.4890511 34.1753425,33.4890511 C33.126758,33.4890511 32.2767123,32.6426405 32.2767123,31.5985401 C32.2767123,30.5544398 33.126758,29.7080292 34.1753425,29.7080292 C35.2169476,29.7188866 36.056353,30.5613358 36.0590228,31.5985401 L36.0739726,31.5985401 Z M35.7949902,10.0331853 L32.9533066,20.2236025 L13.1452371,20.2236025 L11.0849002,10.0331853 L35.7949902,10.0331853 Z" id="Shape-Copy-4" fill="#000000" fill-rule="nonzero"></path>
                        <path d="M171.690411,7.02189781 L176.518356,7.02189781 L176.518356,0.270072993 L182.214247,0.270072993 L182.214247,7.02189781 L191.219178,7.02189781 L191.219178,10.4788321 L182.214247,10.4788321 L182.214247,26.2510949 C182.214247,28.5197194 182.503559,30.1221364 183.082192,31.0583942 C183.660825,31.9946519 184.601089,32.4627737 185.903014,32.4627737 C187.024115,32.4627737 187.991503,32.2647222 188.805205,31.8686131 C189.618908,31.4725041 190.369312,31.0403916 191.056438,30.5722628 L192.412603,32.6788321 C192.087122,33.0029213 191.644112,33.3540127 191.083562,33.7321168 C190.523011,34.1102209 189.8811,34.4613122 189.157808,34.7854015 C188.434517,35.1094907 187.629867,35.379561 186.743836,35.5956204 C185.857804,35.8116799 184.944662,35.919708 184.004384,35.919708 C181.581358,35.919708 179.727952,35.2985464 178.44411,34.0562044 C177.160268,32.8138624 176.518356,30.7523258 176.518356,27.8715328 L176.518356,10.4788321 L171.690411,10.4788321 L171.690411,7.02189781 Z M208.306849,11.8832117 C207.475064,12.3153306 206.787948,12.8194618 206.245479,13.3956204 C205.703011,13.971779 205.124387,14.7999946 204.509589,15.880292 L204.509589,32.6788321 L209.283288,32.6788321 L209.283288,35.379562 L194.799452,35.379562 L194.799452,32.6788321 L198.813699,32.6788321 L198.813699,9.72262774 L194.799452,9.72262774 L194.799452,7.02189781 L204.509589,7.02189781 L204.509589,12.4773723 L204.726575,12.4773723 C205.341373,11.2890452 206.064653,10.2537757 206.896438,9.37153285 C207.728223,8.48928999 208.668488,7.70608615 209.71726,7.02189781 L214.924932,7.02189781 L214.924932,11.8832117 L208.306849,11.8832117 Z M220.837808,24.1445255 C220.837808,21.7678713 220.892054,19.3372387 221.000548,16.8525547 C221.109042,14.3678708 221.163288,11.9912522 221.163288,9.72262774 L217.149041,9.72262774 L217.149041,7.02189781 L226.804932,7.02189781 C226.732602,9.83067098 226.669315,12.5223716 226.615068,15.0970803 C226.560822,17.671789 226.533699,20.3454849 226.533699,23.1182482 C226.533699,24.5946546 226.615068,25.8999943 226.777808,27.0343066 C226.940549,28.1686188 227.247943,29.1318695 227.7,29.9240876 C228.152057,30.7163057 228.775886,31.3104603 229.571507,31.7065693 C230.367127,32.1026784 231.37972,32.3007299 232.609315,32.3007299 C234.417543,32.3007299 235.936432,31.72458 237.166027,30.5722628 C238.395623,29.4199456 239.335887,27.8715426 239.986849,25.9270073 L239.986849,9.72262774 L236.026849,9.72262774 L236.026849,7.02189781 L245.68274,7.02189781 L245.68274,32.6788321 L249.696986,32.6788321 L249.696986,35.379562 L240.637808,35.379562 L240.258082,29.2218978 L239.986849,29.2218978 C239.806026,29.978106 239.453427,30.7523075 238.929041,31.5445255 C238.404655,32.3367436 237.744662,33.0569311 236.949041,33.7051095 C236.153421,34.3532879 235.231238,34.8844262 234.182466,35.2985401 C233.133693,35.7126541 231.994527,35.919708 230.764932,35.919708 C229.137526,35.919708 227.709047,35.7486635 226.479452,35.4065693 C225.249857,35.0644752 224.219182,34.4433135 223.387397,33.5430657 C222.555612,32.6428179 221.922742,31.4365039 221.488767,29.9240876 C221.054792,28.4116713 220.837808,26.4851699 220.837808,24.1445255 Z M268.140822,28.9518248 C268.140822,27.9795572 267.779182,27.1243346 267.05589,26.3861314 C266.332599,25.6479282 265.428499,24.9637501 264.343562,24.3335766 C263.258625,23.7034032 262.083294,23.0732392 260.817534,22.4430657 C259.551774,21.8128922 258.376444,21.0927048 257.291507,20.2824818 C256.20657,19.4722587 255.302469,18.5180104 254.579178,17.419708 C253.855887,16.3214057 253.494247,14.9980613 253.494247,13.449635 C253.494247,12.4053476 253.747395,11.4601016 254.253699,10.6138686 C254.760003,9.76763567 255.438078,9.03844588 256.287945,8.42627737 C257.137812,7.81410886 258.141364,7.33698468 259.29863,6.99489051 C260.455896,6.65279634 261.685473,6.48175182 262.987397,6.48175182 C264.072334,6.48175182 265.030681,6.5177612 265.862466,6.58978102 C266.694251,6.66180085 267.453695,6.76082662 268.140822,6.88686131 C268.827949,7.01289601 269.478901,7.16593584 270.093699,7.3459854 C270.708496,7.52603496 271.341367,7.72408651 271.992329,7.94014599 L271.992329,15.2321168 L268.520548,15.2321168 L268.520548,10.9649635 L267.489863,9.77664234 C267.019724,9.6686126 266.513427,9.57858917 265.970959,9.50656934 C265.42849,9.43454952 264.849866,9.39854015 264.235068,9.39854015 C262.499169,9.39854015 261.206306,9.73162684 260.356438,10.3978102 C259.506571,11.0639936 259.081644,11.9012115 259.081644,12.9094891 C259.081644,13.8817567 259.443284,14.7279769 260.166575,15.4481752 C260.889867,16.1683734 261.793967,16.8435492 262.878904,17.4737226 C263.963841,18.1038961 265.139172,18.7250578 266.404932,19.3372263 C267.670691,19.9493948 268.846022,20.6425752 269.930959,21.4167883 C271.015896,22.1910014 271.919996,23.0822334 272.643288,24.0905109 C273.366579,25.0987885 273.728219,26.3051025 273.728219,27.7094891 C273.728219,29.0058459 273.429866,30.1581458 272.833151,31.1664234 C272.236435,32.1747009 271.422745,33.0299235 270.392055,33.7321168 C269.361365,34.4343101 268.14987,34.9744507 266.757534,35.3525547 C265.365199,35.7306588 263.891515,35.919708 262.336438,35.919708 C260.600539,35.919708 258.909871,35.6946495 257.264384,35.2445255 C255.618896,34.7944016 254.326032,34.2632634 253.385753,33.6510949 L253.385753,26.5751825 L256.857534,26.5751825 L256.857534,30.680292 L257.942466,31.8145985 C258.412605,32.1746977 258.973147,32.4627726 259.62411,32.6788321 C260.275072,32.8948916 261.124926,33.0029197 262.173699,33.0029197 C263.909598,33.0029197 265.338077,32.642826 266.459178,31.9226277 C267.58028,31.2024295 268.140822,30.2121718 268.140822,28.9518248 Z M276.060822,7.02189781 L280.888767,7.02189781 L280.888767,0.270072993 L286.584658,0.270072993 L286.584658,7.02189781 L295.589589,7.02189781 L295.589589,10.4788321 L286.584658,10.4788321 L286.584658,26.2510949 C286.584658,28.5197194 286.87397,30.1221364 287.452603,31.0583942 C288.031236,31.9946519 288.9715,32.4627737 290.273425,32.4627737 C291.394526,32.4627737 292.361914,32.2647222 293.175616,31.8686131 C293.989319,31.4725041 294.739723,31.0403916 295.426849,30.5722628 L296.783014,32.6788321 C296.457533,33.0029213 296.014523,33.3540127 295.453973,33.7321168 C294.893422,34.1102209 294.25151,34.4613122 293.528219,34.7854015 C292.804928,35.1094907 292.000278,35.379561 291.114247,35.5956204 C290.228215,35.8116799 289.315073,35.919708 288.374795,35.919708 C285.951769,35.919708 284.098363,35.2985464 282.814521,34.0562044 C281.530679,32.8138624 280.888767,30.7523258 280.888767,27.8715328 L280.888767,10.4788321 L276.060822,10.4788321 L276.060822,7.02189781 Z" id="trust-copy-8" fill="#000000"></path>
                    </g>
                </g>
            </g>
        </g>
    </g>
</svg>
